<?xml version="1.0" encoding="UTF-8"?>
<svg id="Livello_2" data-name="Livello 2" xmlns="http://www.w3.org/2000/svg" viewBox="0 0 111.49 59.63">
  <defs>
    <style>
      .cls-1 {
        fill: #935e75;
      }

      .cls-2 {
        fill: #7698a2;
      }
    </style>
  </defs>
  <g id="Livello_1-2" data-name="Livello 1">
    <g>
      <path class="cls-2" d="M51.81,29.84c0-16.59,13.39-29.84,29.84-29.84s29.84,13.25,29.84,29.84v25.86c0,2.18-1.75,3.93-3.93,3.93s-3.93-1.75-3.93-3.93v-25.86c0-12.08-9.9-21.98-21.98-21.98s-21.98,9.9-21.98,21.98"/>
      <path class="cls-1" d="M51.81,30.09c0-2.17,1.76-3.94,3.94-3.94s3.94,1.76,3.94,3.94v-.3c0,16.45-13.39,29.84-29.84,29.84S0,46.23,0,29.78V3.93C0,1.6,1.75,0,3.93,0s3.93,1.6,3.93,3.93v25.85c0,12.08,9.9,21.98,21.98,21.98s21.98-9.9,21.98-21.98"/>
    </g>
  </g>
</svg>